<svg width="37" height="38" viewBox="0 0 37 38" fill="none" xmlns="http://www.w3.org/2000/svg">
<path d="M18.5 0.919983C8.28273 0.919983 0 9.20271 0 19.42C0 29.6373 8.28273 37.92 18.5 37.92C28.7173 37.92 37 29.6373 37 19.42C36.9881 9.20765 28.7123 0.931877 18.5 0.919983Z" fill="#5243C2" fill-opacity="0.15"/>
<path d="M18.5 0.919983C8.28273 0.919983 0 9.20271 0 19.42C0 29.6373 8.28273 37.92 18.5 37.92C28.7173 37.92 37 29.6373 37 19.42C36.9881 9.20765 28.7123 0.931877 18.5 0.919983Z" fill="#5243C2" fill-opacity="0.15"/>
<path d="M29.1792 13.5616L18.6265 27.8821C18.3748 28.216 17.9995 28.4348 17.585 28.4893C17.1704 28.5438 16.7513 28.4295 16.4219 28.172L8.88625 22.1471C8.22128 21.615 8.1136 20.6445 8.64575 19.9795C9.1779 19.3146 10.1484 19.2069 10.8133 19.739L17.0972 24.7664L26.6971 11.7378C27.0119 11.2654 27.5608 11.0042 28.126 11.058C28.6911 11.1117 29.1809 11.4716 29.4011 11.9949C29.6212 12.5181 29.536 13.12 29.1792 13.5616Z" fill="#BB6BD9"/>
</svg>
